<?xml version="1.0" ?><svg viewBox="0 0 88 88" xmlns="http://www.w3.org/2000/svg"><title/><g id="Mouse"><path d="M67,31H62V42.1843A2.995,2.995,0,0,1,64,45v2H80V44A13.0147,13.0147,0,0,0,67,31Z"/><path d="M61,52a1.0009,1.0009,0,0,0,1-1V45a1,1,0,0,0-2,0v6A1.0009,1.0009,0,0,0,61,52Z"/><path d="M64,51a2.995,2.995,0,0,1-2,2.8157V59a1,1,0,0,1-2,0V53.8157A2.995,2.995,0,0,1,58,51V49H42V68a19,19,0,0,0,38,0V49H64Z"/><path d="M60,31H55A13.0147,13.0147,0,0,0,42,44v3H58V45a2.995,2.995,0,0,1,2-2.8157Z"/><path d="M56,27v2H66V27a1.0029,1.0029,0,0,0-1-1H57A1.0029,1.0029,0,0,0,56,27Z"/><path d="M60,17v7h2V17a16,16,0,0,0-32,0V77.5a7.5,7.5,0,0,1-15,0V76H13v1.5a9.5,9.5,0,0,0,19,0V17a14,14,0,0,1,28,0Z"/><rect height="2" width="12" x="8" y="14"/><rect height="44" width="5" x="15" y="18"/><rect height="44" width="5" x="8" y="18"/><path d="M14.91,1.5864a1,1,0,0,0-1.82,0L8.3564,12H19.6436Z"/><rect height="2" width="12" x="8" y="64"/><path d="M20,71V68H8v3a3.0033,3.0033,0,0,0,3,3h6A3.0033,3.0033,0,0,0,20,71Z"/></g></svg>